<svg width="53" height="30" viewBox="0 0 53 30" fill="none" xmlns="http://www.w3.org/2000/svg">
<path d="M3.50383 9.54907C3.85374 7.5896 5.55791 6.16278 7.54838 6.16278H36.1781C38.7362 6.16278 40.6723 8.47531 40.2226 10.9935L37.5814 25.7842C37.2315 27.7437 35.5274 29.1705 33.5369 29.1705H4.90718C2.3491 29.1705 0.412951 26.858 0.862637 24.3398L3.50383 9.54907Z" fill="url(#paint0_linear_144_292)"/>
<path d="M15.4185 3.38629C15.7684 1.42682 17.4726 0 19.4631 0H48.0928C50.6509 0 52.587 2.31252 52.1373 4.83077L49.4961 19.6215C49.1462 21.5809 47.442 23.0078 45.4516 23.0078H16.8219C14.2638 23.0078 12.3276 20.6952 12.7773 18.177L15.4185 3.38629Z" fill="url(#paint1_linear_144_292)"/>
<g filter="url(#filter0_i_144_292)">
<path fill-rule="evenodd" clip-rule="evenodd" d="M38.0772 23.0078H16.8218C14.2637 23.0078 12.3276 20.6952 12.7773 18.177L14.9227 6.16278H36.1781C38.7361 6.16278 40.6723 8.47531 40.2226 10.9935L38.0772 23.0078Z" fill="url(#paint2_linear_144_292)"/>
</g>
<defs>
<filter id="filter0_i_144_292" x="12.7122" y="6.16278" width="27.5756" height="19.7209" filterUnits="userSpaceOnUse" color-interpolation-filters="sRGB">
<feFlood flood-opacity="0" result="BackgroundImageFix"/>
<feBlend mode="normal" in="SourceGraphic" in2="BackgroundImageFix" result="shape"/>
<feColorMatrix in="SourceAlpha" type="matrix" values="0 0 0 0 0 0 0 0 0 0 0 0 0 0 0 0 0 0 127 0" result="hardAlpha"/>
<feOffset dy="2.87597"/>
<feGaussianBlur stdDeviation="2.15698"/>
<feComposite in2="hardAlpha" operator="arithmetic" k2="-1" k3="1"/>
<feColorMatrix type="matrix" values="0 0 0 0 0.754671 0 0 0 0 0.181998 0 0 0 0 0.323307 0 0 0 1 0"/>
<feBlend mode="normal" in2="shape" result="effect1_innerShadow_144_292"/>
</filter>
<linearGradient id="paint0_linear_144_292" x1="20.5426" y1="6.16278" x2="20.5426" y2="29.1705" gradientUnits="userSpaceOnUse">
<stop stop-color="#FFC387"/>
<stop offset="1" stop-color="#FF7746"/>
</linearGradient>
<linearGradient id="paint1_linear_144_292" x1="20.9534" y1="23.0078" x2="43.9612" y2="-1.05245e-07" gradientUnits="userSpaceOnUse">
<stop stop-color="#FC6288"/>
</linearGradient>
<linearGradient id="paint2_linear_144_292" x1="20.9534" y1="23.0077" x2="43.9612" y2="-9.18942e-06" gradientUnits="userSpaceOnUse">
<stop stop-color="#FC6288"/>
<stop offset="1" stop-color="#FF8560"/>
</linearGradient>
</defs>
</svg>
